<svg data-name="Layer 1" viewBox="0 0 64 64" xmlns="http://www.w3.org/2000/svg"><path d="M24 11h-7a4 4 0 0 0-4 4v39a4 4 0 0 0 4 4h30a4 4 0 0 0 4-4V15a4 4 0 0 0-4-4h-7" fill="none" stroke="#ffffff" stroke-linecap="round" stroke-linejoin="round" stroke-width="2px" class="stroke-37a849"></path><circle cx="32" cy="6" r="3" fill="none" stroke="#ffffff" stroke-linecap="round" stroke-linejoin="round" stroke-width="2px" class="stroke-37a849"></circle><path d="M28 9h8a5 5 0 0 1 5 5v0h0-18 0v0a5 5 0 0 1 5-5Z" fill="none" stroke="#ffffff" stroke-linecap="round" stroke-linejoin="round" stroke-width="2px" class="stroke-37a849"></path><circle cx="23" cy="27" r="2" fill="#ffffff" class="fill-37a849"></circle><path d="M30 27h12" fill="none" stroke="#ffffff" stroke-linecap="round" stroke-linejoin="round" stroke-width="2px" class="stroke-37a849"></path><circle cx="23" cy="34" r="2" fill="#ffffff" class="fill-37a849"></circle><path d="M30 34h12" fill="none" stroke="#ffffff" stroke-linecap="round" stroke-linejoin="round" stroke-width="2px" class="stroke-37a849"></path><circle cx="23" cy="41" r="2" fill="#ffffff" class="fill-37a849"></circle><path d="M30 41h12" fill="none" stroke="#ffffff" stroke-linecap="round" stroke-linejoin="round" stroke-width="2px" class="stroke-37a849"></path></svg>