<svg width="64" height="64" viewBox="0 0 64 64" fill="none" xmlns="http://www.w3.org/2000/svg">
<path d="M32.5913 0C31.7896 0 31.0943 0.333599 30.5074 1.0008L15.092 18.5264H2.96421C2.16055 18.5264 1.46715 18.86 0.880292 19.5272C0.293431 20.1944 0 20.9849 0 21.8964V42.1036C0 43.0151 0.293431 43.8056 0.880292 44.4728C1.46715 45.14 2.16241 45.4736 2.96421 45.4736H15.092L30.5074 62.9992C31.0943 63.6664 31.7877 64 32.5913 64C33.395 64 34.0884 63.6664 34.6753 62.9992C35.2621 62.332 35.5556 61.5437 35.5556 60.63V3.36999C35.5556 2.45843 35.2621 1.66799 34.6771 1.0008C34.0921 0.333599 33.3969 0 32.5932 0H32.5913Z" fill="white"/>
<path d="M49.8483 39.4986C51.0963 37.1924 51.7203 34.7007 51.7203 32.0212C51.7203 29.3418 51.0963 26.8415 49.8483 24.5162C48.6003 22.1908 46.9505 20.5524 44.8936 19.601C44.6003 19.426 44.2323 19.3364 43.7932 19.3364C43.0305 19.3364 42.3692 19.6628 41.811 20.3135C41.2527 20.9684 40.9736 21.7663 40.9736 22.7178C40.9736 23.458 41.1496 24.0831 41.5034 24.593C41.8572 25.1028 42.2803 25.5444 42.7799 25.9135C43.2776 26.2826 43.7772 26.6879 44.2767 27.1295C44.7763 27.5711 45.2012 28.194 45.5532 29.0047C45.9052 29.8154 46.0812 30.8202 46.0812 32.017C46.0812 33.2138 45.9052 34.2186 45.5532 35.0292C45.2012 35.8399 44.7763 36.465 44.2767 36.9044C43.7772 37.3439 43.2776 37.7514 42.7799 38.1204C42.2803 38.4895 41.8554 38.9311 41.5034 39.441C41.1514 39.9508 40.9736 40.578 40.9736 41.3162C40.9736 42.2676 41.2545 43.0676 41.811 43.7204C42.3692 44.369 43.0287 44.6996 43.7932 44.6996C44.2323 44.6996 44.6003 44.6122 44.8936 44.4351C46.9487 43.4474 48.6003 41.8004 49.8483 39.4922V39.4986Z" fill="white"/>
<path d="M60.2217 47.191C62.7408 42.5521 64.0004 37.4855 64.0004 31.9977C64.0004 26.5122 62.7408 21.4499 60.2217 16.8044C57.7025 12.1655 54.3687 8.78342 50.2221 6.66908C49.8381 6.49108 49.4524 6.3999 49.0666 6.3999C48.2969 6.3999 47.6294 6.74072 47.066 7.42234C46.5026 8.10396 46.2227 8.90932 46.2227 9.84276C46.2227 11.2407 46.8004 12.2979 47.9559 13.0164C49.6139 14.0562 50.7407 14.8442 51.3328 15.3826C53.5254 17.3189 55.2371 19.7459 56.4662 22.6677C57.6953 25.5896 58.3108 28.6981 58.3108 31.9999C58.3108 35.2973 57.6953 38.408 56.4662 41.3321C55.2371 44.2539 53.5254 46.6809 51.3328 48.6172C50.7407 49.1556 49.6139 49.9436 47.9559 50.9834C46.8004 51.7019 46.2227 52.7569 46.2227 54.157C46.2227 55.0883 46.5044 55.8958 47.066 56.5775C47.6276 57.2591 48.3094 57.5999 49.1097 57.5999C49.4649 57.5999 49.8363 57.5087 50.2203 57.3307C54.3669 55.2142 57.7025 51.8365 60.2199 47.1932L60.2217 47.191Z" fill="white"/>
</svg>
