<svg width="64" height="64" viewBox="0 0 64 64" fill="none" xmlns="http://www.w3.org/2000/svg">
<path d="M57.254 32L63.414 24.6079C63.8048 24.139 64.0002 23.5677 64.0002 22.8985C64.0002 22.2292 63.8048 21.6579 63.414 21.189L60.5649 17.77C60.1742 17.3011 59.6981 17.0667 59.1404 17.0667C58.5826 17.0667 58.1066 17.3011 57.7158 17.77L51.5558 25.1621L45.3957 17.77C45.0049 17.3011 44.5289 17.0667 43.9712 17.0667C43.4134 17.0667 42.9374 17.3011 42.5466 17.77L39.6975 21.189C39.3067 21.6579 39.1113 22.2292 39.1113 22.8985C39.1113 23.5677 39.3067 24.139 39.6975 24.6079L45.8575 32L39.6975 39.392C39.3067 39.861 39.1113 40.4322 39.1113 41.1015C39.1113 41.7708 39.3067 42.3421 39.6975 42.811L42.5466 46.2299C42.9374 46.6989 43.4134 46.9333 43.9712 46.9333C44.5289 46.9333 45.0049 46.6989 45.3957 46.2299L51.5558 38.8379L57.7158 46.2299C58.1066 46.6989 58.5809 46.9333 59.1404 46.9333C59.6999 46.9333 60.1742 46.6989 60.5649 46.2299L63.414 42.811C63.8048 42.3421 64.0002 41.7708 64.0002 41.1015C64.0002 40.4322 63.8048 39.861 63.414 39.392L57.254 32V32Z" fill="white"/>
<path d="M32.5913 0C31.7896 0 31.0943 0.333599 30.5074 1.0008L15.092 18.5264H2.96421C2.16055 18.5264 1.46715 18.86 0.880292 19.5272C0.293431 20.1944 0 20.9849 0 21.8964V42.1036C0 43.0151 0.293431 43.8056 0.880292 44.4728C1.46715 45.14 2.16241 45.4736 2.96421 45.4736H15.092L30.5074 62.9992C31.0943 63.6664 31.7877 64 32.5913 64C33.395 64 34.0884 63.6664 34.6753 62.9992C35.2621 62.332 35.5556 61.5437 35.5556 60.63V3.36999C35.5556 2.45843 35.2621 1.66799 34.6771 1.0008C34.0921 0.333599 33.3969 0 32.5932 0H32.5913Z" fill="white"/>
</svg>
